<?xml version="1.0" encoding="UTF-8" standalone="no"?>
<!-- Created with Inkscape (http://www.inkscape.org/) -->

<svg
   width="45.129002"
   height="61.18"
   viewBox="0 0 45.129002 61.179997"
   id="svg3431"
   version="1.1"
   inkscape:version="1.1.2 (0a00cf5339, 2022-02-04)"
   sodipodi:docname="Bluetooth_Logo.svg"
   xmlns:inkscape="http://www.inkscape.org/namespaces/inkscape"
   xmlns:sodipodi="http://sodipodi.sourceforge.net/DTD/sodipodi-0.dtd"
   xmlns:xlink="http://www.w3.org/1999/xlink"
   xmlns="http://www.w3.org/2000/svg"
   xmlns:svg="http://www.w3.org/2000/svg"
   xmlns:rdf="http://www.w3.org/1999/02/22-rdf-syntax-ns#"
   xmlns:cc="http://creativecommons.org/ns#"
   xmlns:dc="http://purl.org/dc/elements/1.1/">
  <defs
     id="defs3433">
    <defs
       id="defs3446">
      <rect
         id="SVGID_1_"
         x="19"
         y="14.895"
         width="250"
         height="61.701" />
    </defs>
    <clipPath
       id="SVGID_2_">
      <use
         height="100%"
         width="100%"
         y="0"
         x="0"
         style="overflow:visible"
         xlink:href="#SVGID_1_"
         overflow="visible"
         id="use3450" />
    </clipPath>
  </defs>
  <sodipodi:namedview
     id="base"
     pagecolor="#ffffff"
     bordercolor="#666666"
     borderopacity="1.0"
     inkscape:pageopacity="0.0"
     inkscape:pageshadow="2"
     inkscape:zoom="3.6309218"
     inkscape:cx="183.4245"
     inkscape:cy="38.28229"
     inkscape:document-units="px"
     inkscape:current-layer="layer1"
     showgrid="false"
     fit-margin-top="0"
     fit-margin-left="0"
     fit-margin-right="0"
     fit-margin-bottom="0"
     units="px"
     inkscape:window-width="2560"
     inkscape:window-height="1304"
     inkscape:window-x="0"
     inkscape:window-y="32"
     inkscape:window-maximized="1"
     inkscape:pagecheckerboard="0" />
  <metadata
     id="metadata3436">
    <rdf:RDF>
      <cc:Work
         rdf:about="">
        <dc:format>image/svg+xml</dc:format>
        <dc:type
           rdf:resource="http://purl.org/dc/dcmitype/StillImage" />
      </cc:Work>
    </rdf:RDF>
  </metadata>
  <g
     inkscape:label="Layer 1"
     inkscape:groupmode="layer"
     id="layer1"
     transform="translate(-1113.0189,-812.9087)">
    <path
       style="clip-rule:evenodd;fill:#0060a9;fill-rule:evenodd"
       inkscape:connector-curvature="0"
       clip-path="url(#SVGID_2_)"
       d="m 44.554,30.309 5.061,5.062 -5.057,5.059 z m 0,30.965 5.061,-5.063 -5.057,-5.044 z M 39.156,45.797 28.227,34.833 l 3.168,-3.169 8.709,8.703 V 19.492 L 55.945,35.334 45.483,45.797 55.946,56.245 40.104,72.089 V 51.215 l -8.709,8.702 -3.168,-3.169 z m 2.929,30.583 c 13.36,0 22.562,-6.347 22.562,-30.584 0,-24.251 -9.202,-30.596 -22.562,-30.596 -13.352,0 -22.567,6.345 -22.567,30.596 0,24.237 9.215,30.584 22.567,30.584 z"
       id="path3470"
       transform="translate(1093.5009,797.7087)" />
  </g>
</svg>
